Coordinates
version=1
nRows=23
nColumns=28
inDegrees=yes

Units are S.I. units (second, meters, Newtons, ...)
If the header above contains a line with 'inDegrees', this indicates whether rotational values are in degrees (yes) or radians (no).

endheader
time	pelvis_tilt	pelvis_list	pelvis_rotation	pelvis_tx	pelvis_ty	pelvis_tz	hip_flexion_r	hip_adduction_r	hip_rotation_r	knee_angle_r	knee_rotation_r	knee_adduction_r	ankle_angle_r	subtalar_angle_r	mtp_angle_r	hip_flexion_l	hip_adduction_l	hip_rotation_l	knee_angle_l	knee_rotation_l	knee_adduction_l	ankle_angle_l	subtalar_angle_l	mtp_angle_l	lumbar_extension	lumbar_bending	lumbar_rotation
      0.00000000	     -7.90949708	      8.95250145	    -95.25528892	     -0.25301964	      0.95346992	     -0.94209715	      4.29163377	      9.16104423	     24.10270746	    -11.75444209	    -22.72353959	      7.11068690	     13.14833577	     -7.30058270	     -0.65962567	     42.65219981	    -14.31289853	      3.74243016	    -30.39764237	     12.26474180	     -6.25727407	     10.25510489	     -1.68215502	      0.83025286	      0.00000000	      0.00000000	      0.00000000
      0.01000000	     -7.73382861	      9.62357406	    -95.34869141	     -0.25224450	      0.95145096	     -0.93099680	      4.37327688	      8.72655958	     23.54243898	    -11.95569575	    -22.27304881	      7.44131642	     13.84583454	     -6.95737794	     -0.60224569	     42.39990330	    -13.71889100	      3.54550967	    -25.58855109	     13.09268658	     -5.14643526	     10.38474917	     -0.77134146	      0.94181106	      0.00000000	      0.00000000	      0.00000000
      0.02000000	     -7.21131267	      9.17365431	    -94.72102496	     -0.25069179	      0.95067553	     -0.91796258	      2.62230884	      7.77706732	     20.62259630	    -10.70483631	    -19.49493581	      6.89646338	     14.10250665	     -7.49786880	     -0.35827950	     40.74804567	    -12.08818937	      2.89059908	    -20.29890979	     13.18096631	     -3.25360187	     10.74659447	      0.66492722	      1.56202062	      0.00000000	      0.00000000	      0.00000000
      0.03000000	     -6.71563322	      9.59517805	    -94.80261938	     -0.24954924	      0.94913267	     -0.90601865	      2.53767663	      6.95215175	     19.56968829	    -11.10926881	    -18.80933421	      7.24152106	     14.77245343	     -6.92805365	     -0.21251794	     39.77058833	    -11.13695076	      3.15005036	    -15.02983769	     13.59246261	     -2.09705182	     10.78588612	      1.25197869	      1.71081324	      0.00000000	      0.00000000	      0.00000000
      0.04000000	     -6.08207392	      9.70012906	    -94.82962837	     -0.24772632	      0.94790959	     -0.89379915	      2.12077442	      5.88237378	     18.42797886	    -11.52031894	    -18.12405668	      7.60128136	     15.57370215	     -6.14559963	     -0.11240032	     38.15818664	    -10.05021425	      4.38904042	     -9.41591864	     14.41115851	     -1.29397588	     10.08615058	      0.61653508	      1.81810739	      0.00000000	      0.00000000	      0.00000000
      0.05000000	     -5.61088733	      9.74159968	    -94.96985530	     -0.24607494	      0.94653627	     -0.88173133	      1.69683480	      4.96311112	     17.58323428	    -12.05560721	    -17.67911015	      8.10691575	     16.15296258	     -5.69166221	      0.05630179	     36.55790510	     -9.50137057	      6.23200627	     -4.37546350	     16.33366180	     -1.00392482	      9.51922088	      0.48914042	      1.95606847	      0.00000000	      0.00000000	      0.00000000
      0.06000000	     -5.32028512	      9.72850112	    -95.32785676	     -0.24513048	      0.94508828	     -0.86955651	      1.22265413	      4.37224728	     17.23452341	    -12.65013982	    -17.33693288	      8.42932060	     16.66686708	     -5.18777109	      0.16246680	     35.30099086	     -9.41948398	      7.44834850	     -0.62848543	     18.71815255	     -0.83950291	      9.16941593	      1.46924082	      2.06769902	      0.00000000	      0.00000000	      0.00000000
      0.07000000	     -5.12954548	      9.75417878	    -95.66948018	     -0.24475637	      0.94358802	     -0.85748171	      0.84485543	      4.04313339	     17.10175540	    -13.32677974	    -17.01391175	      8.57149605	     16.99792331	     -5.02053730	      0.21088767	     34.86606573	     -9.26408272	      7.53917779	      1.10301956	     20.13817727	     -0.30190107	      9.74209963	      3.49666149	      2.00868178	      0.00000000	      0.00000000	      0.00000000
      0.08000000	     -5.19336417	      9.78858293	    -95.88387693	     -0.24435850	      0.94183516	     -0.84602417	      0.58831396	      4.03745357	     17.15543688	    -14.17901100	    -16.88761986	      8.70021351	     17.33554485	     -4.85464113	      0.23579289	     35.23603673	     -9.24709165	      7.82179146	      0.89517771	     21.42106808	      0.01544310	     10.53251770	      5.53012554	      1.76386620	      0.00000000	      0.00000000	      0.00000000
      0.09000000	     -5.45043346	     10.07825364	    -96.04936448	     -0.24422233	      0.93960981	     -0.83474093	      0.69849966	      4.38345752	     17.36540396	    -15.18741930	    -16.73180607	      8.70140582	     17.28807157	     -5.12898756	      0.26520699	     36.43491420	     -9.42569881	      8.24793441	     -0.89709828	     22.32002199	      0.11117498	     11.48360267	      7.23261190	      1.54294860	      0.00000000	      0.00000000	      0.00000000
      0.10000000	     -5.83688407	     10.05950149	    -96.32251060	     -0.24389396	      0.93769926	     -0.82329963	      0.46707162	      4.78148618	     17.78572445	    -16.15386631	    -16.22305192	      8.75215562	     17.29693342	     -5.45755843	      0.19038537	     37.31446276	     -9.88895389	      9.15834048	     -3.38212799	     22.26965916	     -0.47963175	     11.99955727	      6.55044769	      1.52327712	      0.00000000	      0.00000000	      0.00000000
      0.11000000	     -6.18030757	     10.35527612	    -96.47484697	     -0.24314550	      0.93534970	     -0.81133235	      0.66269016	      5.15637908	     17.99902747	    -17.41922664	    -15.95290067	      8.83861113	     17.24692542	     -5.46333657	     -0.03106520	     38.66292934	    -10.26210101	      9.96368041	     -6.53021712	     21.70626744	     -1.35112165	     12.07803647	      5.13550169	      1.66725495	      0.00000000	      0.00000000	      0.00000000
      0.12000000	     -6.56219753	     10.37121387	    -96.65938687	     -0.24208383	      0.93330508	     -0.79913240	      0.58017692	      5.50493991	     18.15246829	    -18.67161454	    -15.21950533	      8.92380517	     16.97179231	     -6.08479778	     -0.42170624	     39.75109562	    -10.64003922	     10.38364455	    -10.05916629	     20.63355132	     -2.30498495	     12.08790269	      3.49763546	      1.77499779	      0.00000000	      0.00000000	      0.00000000
      0.13000000	     -6.67107157	     10.27183058	    -97.00587526	     -0.24110897	      0.93158873	     -0.78613373	      0.30289610	      5.46483960	     18.44203743	    -19.80123130	    -14.35902060	      9.11934031	     16.61443540	     -6.94759946	     -0.86726422	     40.49637776	    -10.84682566	     10.02174530	    -13.31675025	     19.52522381	     -3.15301417	     12.06184985	      2.18702735	      1.65883893	      0.00000000	      0.00000000	      0.00000000
      0.14000000	     -6.67722440	     10.10025675	    -97.31855016	     -0.23992326	      0.93057202	     -0.77265050	      0.03751277	      5.28107431	     18.40661877	    -20.96984042	    -13.55525934	      9.23722119	     15.93086017	     -7.38524009	     -1.43443338	     40.94298768	    -10.85338388	      9.02904235	    -15.88975432	     18.01709206	     -3.64376506	     11.59779982	      0.57746776	      1.48607159	      0.00000000	      0.00000000	      0.00000000
      0.15000000	     -6.20440672	      9.92528152	    -97.66929516	     -0.23873360	      0.92997560	     -0.75890280	     -0.06216428	      4.53669425	     18.26597472	    -22.38272163	    -13.09433819	      9.49254593	     15.33095184	     -7.37187019	     -1.77819855	     41.18351049	    -10.24601829	      6.98735836	    -17.55075558	     15.91039346	     -3.20510809	     11.25268564	     -0.40041659	      1.66455580	      0.00000000	      0.00000000	      0.00000000
      0.16000000	     -5.32881522	      9.64478524	    -98.24774989	     -0.23801255	      0.93016751	     -0.74528598	     -0.20710772	      3.44442502	     18.52967155	    -23.63798374	    -11.28827200	      9.88591983	     14.11036557	     -9.88320797	     -2.66142568	     40.99926117	     -9.50379471	      4.38997853	    -18.64853115	     12.44128203	     -2.60568093	      9.66673952	     -2.92934063	      2.09325238	      0.00000000	      0.00000000	      0.00000000
      0.17000000	     -4.55057001	      9.41990877	    -98.58568496	     -0.23702229	      0.93102859	     -0.73161015	      0.14303138	      2.54090405	     18.09158391	    -25.59830078	    -10.48018889	      9.89775796	     12.68264299	    -10.07544044	     -3.25649931	     40.68607501	     -8.76810612	      2.15599589	    -19.50075952	      8.73237695	     -2.03611033	      7.98371370	     -5.22353143	      2.43771868	      0.00000000	      0.00000000	      0.00000000
      0.18000000	     -3.83059010	      9.45437553	    -98.67196930	     -0.23549273	      0.93131424	     -0.71843898	      0.88393705	      1.73776178	     17.76419203	    -27.63719395	     -9.21966079	     10.14648210	     10.90647192	    -11.72880338	     -3.65876979	     40.71363090	     -8.01752618	      0.68406577	    -20.58497180	      6.00615633	     -1.78759494	      6.61987157	     -7.66370111	      2.39706739	      0.00000000	      0.00000000	      0.00000000
      0.19000000	     -3.47929876	      9.57615754	    -98.55730829	     -0.23363977	      0.93146464	     -0.70613607	      2.08596070	      1.31059945	     17.40189238	    -30.26110749	     -8.72596604	     10.48687319	      8.75521907	    -12.35389264	     -3.94389418	     40.98117585	     -7.73992189	      0.14224414	    -21.93080011	      4.56011744	     -2.17612774	      5.48477455	    -10.33214287	      1.87681356	      0.00000000	      0.00000000	      0.00000000
      0.20000000	     -2.92914819	      9.76091973	    -98.40779783	     -0.23192381	      0.93179582	     -0.69407346	      3.59510145	      0.65307094	     17.11149765	    -33.08025983	     -7.91624922	     11.06728877	      6.03326825	    -13.80015661	     -4.03647351	     41.25859184	     -7.39177006	      0.62577060	    -23.20419001	      4.50626727	     -3.13081883	      4.61682991	    -12.34216581	      1.07266661	      0.00000000	      0.00000000	      0.00000000
      0.21000000	     -2.04112516	     10.15183125	    -98.70143735	     -0.23062132	      0.93184659	     -0.68214529	      5.81608127	     -0.34491379	     17.45809319	    -36.55526831	     -7.73469793	     11.94103448	      3.33055193	    -14.25424728	     -4.58864749	     41.69715988	     -6.72626532	      0.75042209	    -24.56313314	      4.92334612	     -3.39468033	      3.96307919	    -13.09072003	     -4.84785357	      0.00000000	      0.00000000	      0.00000000
      0.22000000	     -0.91897575	      9.85354365	    -98.79276984	     -0.22917409	      0.93270906	     -0.66948292	      7.35353132	     -1.73717598	     17.06684424	    -39.89946792	     -6.65229797	     12.45396617	      0.07516151	    -15.59458616	     -4.32653288	     41.29419905	     -5.49795238	      0.75225641	    -25.76269763	      5.92253252	     -3.43838018	      4.44003711	    -12.17420024	     -5.09860489	      0.00000000	      0.00000000	      0.00000000
